Amsyelvar-Italic-opsz8-wght400-wdth125.ufo
<glyph name="percent" format="2">
  <advance width="2459"/>
  <unicode hex="0025"/>
  <outline>
    <contour>
      <point x="-1.0" y="1073.0" type="qcurve" smooth="yes"/>
      <point x="25.0" y="1265.0"/>
      <point x="319.0" y="1512.0"/>
      <point x="516.0" y="1511.0" type="qcurve" smooth="yes"/>
      <point x="711.0" y="1509.0"/>
      <point x="945.0" y="1276.0"/>
      <point x="917.0" y="1074.0" type="qcurve" smooth="yes"/>
      <point x="892.0" y="882.0"/>
      <point x="588.0" y="630.0"/>
      <point x="393.0" y="631.0" type="qcurve" smooth="yes"/>
      <point x="197.0" y="632.0"/>
      <point x="-29.0" y="867.0"/>
    </contour>
    <contour>
      <point x="174.0" y="1086.0" type="qcurve" smooth="yes"/>
      <point x="157.0" y="942.0"/>
      <point x="282.0" y="764.0"/>
      <point x="414.0" y="764.0" type="qcurve" smooth="yes"/>
      <point x="556.0" y="763.0"/>
      <point x="727.0" y="921.0"/>
      <point x="746.0" y="1073.0" type="qcurve" smooth="yes"/>
      <point x="764.0" y="1211.0"/>
      <point x="612.0" y="1374.0"/>
      <point x="498.0" y="1375.0" type="qcurve" smooth="yes"/>
      <point x="374.0" y="1376.0"/>
      <point x="192.0" y="1231.0"/>
    </contour>
    <contour>
      <point x="343.0" y="29.0" type="line"/>
      <point x="1734.0" y="1533.0" type="line"/>
      <point x="1860.0" y="1418.0" type="line"/>
      <point x="469.0" y="-86.0" type="line"/>
    </contour>
    <contour>
      <point x="1339.0" y="413.0" type="qcurve" smooth="yes"/>
      <point x="1365.0" y="605.0"/>
      <point x="1659.0" y="852.0"/>
      <point x="1856.0" y="851.0" type="qcurve" smooth="yes"/>
      <point x="2051.0" y="849.0"/>
      <point x="2285.0" y="616.0"/>
      <point x="2257.0" y="414.0" type="qcurve" smooth="yes"/>
      <point x="2232.0" y="222.0"/>
      <point x="1928.0" y="-30.0"/>
      <point x="1733.0" y="-29.0" type="qcurve" smooth="yes"/>
      <point x="1537.0" y="-28.0"/>
      <point x="1311.0" y="207.0"/>
    </contour>
    <contour>
      <point x="1514.0" y="426.0" type="qcurve" smooth="yes"/>
      <point x="1497.0" y="282.0"/>
      <point x="1622.0" y="104.0"/>
      <point x="1754.0" y="104.0" type="qcurve" smooth="yes"/>
      <point x="1896.0" y="103.0"/>
      <point x="2067.0" y="261.0"/>
      <point x="2086.0" y="413.0" type="qcurve" smooth="yes"/>
      <point x="2104.0" y="551.0"/>
      <point x="1952.0" y="714.0"/>
      <point x="1838.0" y="715.0" type="qcurve" smooth="yes"/>
      <point x="1714.0" y="716.0"/>
      <point x="1532.0" y="571.0"/>
    </contour>
  </outline>
</glyph>
<glyph name="plus" format="2">
  <advance width="1238"/>
  <unicode hex="002B"/>
  <outline>
    <contour>
      <point x="58" y="556" type="line"/>
      <point x="58" y="709" type="line"/>
      <point x="1103" y="709" type="line"/>
      <point x="1103" y="556" type="line"/>
    </contour>
    <contour>
      <point x="501" y="170" type="line"/>
      <point x="501" y="1094" type="line"/>
      <point x="660" y="1094" type="line"/>
      <point x="660" y="170" type="line"/>
    </contour>
  </outline>
</glyph>
<glyph name="comma" format="2">
  <advance width="603"/>
  <unicode hex="002C"/>
  <outline>
    <contour>
      <point x="36.0" y="-210.0" type="line"/>
      <point x="81.0" y="-179.0"/>
      <point x="214.0" y="-58.0"/>
      <point x="236.0" y="6.0" type="qcurve"/>
      <point x="159.0" y="6.0"/>
      <point x="72.0" y="84.0"/>
      <point x="72.0" y="146.0" type="qcurve" smooth="yes"/>
      <point x="72.0" y="206.0"/>
      <point x="169.0" y="296.0"/>
      <point x="237.0" y="296.0" type="qcurve" smooth="yes"/>
      <point x="301.0" y="296.0"/>
      <point x="390.0" y="197.0"/>
      <point x="390.0" y="108.0" type="qcurve" smooth="yes"/>
      <point x="390.0" y="-5.0"/>
      <point x="203.0" y="-230.0"/>
      <point x="101.0" y="-292.0" type="qcurve"/>
    </contour>
  </outline>
</glyph>
<glyph name="two" format="2">
  <advance width="1292"/>
  <unicode hex="0032"/>
  <outline>
    <contour>
      <point x="-110.0" y="12.0" type="qcurve"/>
      <point x="-179.0" y="100.0" type="line"/>
      <point x="-22.0" y="206.0" type="line" smooth="yes"/>
      <point x="577.0" y="612.0"/>
      <point x="866" y="971"/>
      <point x="859" y="1148" type="qcurve" smooth="yes"/>
      <point x="854.0" y="1266.0"/>
      <point x="676.0" y="1374.0"/>
      <point x="559.0" y="1374.0" type="qcurve" smooth="yes"/>
      <point x="420.0" y="1374.0"/>
      <point x="193.0" y="1267.0"/>
      <point x="126.0" y="1179.0" type="qcurve"/>
      <point x="7.0" y="1263.0" type="line"/>
      <point x="109.0" y="1391.0"/>
      <point x="398.0" y="1530.0"/>
      <point x="617.0" y="1530.0" type="qcurve" smooth="yes"/>
      <point x="840.0" y="1530.0"/>
      <point x="1079.0" y="1345.0"/>
      <point x="1092.0" y="1191.0" type="qcurve" smooth="yes"/>
      <point x="1116.0" y="883.0"/>
      <point x="223.0" y="189.0"/>
      <point x="215.0" y="221.0" type="qcurve"/>
      <point x="212.0" y="219.0" type="line"/>
      <point x="255.0" y="232.0"/>
      <point x="298.0" y="244.0"/>
      <point x="341.0" y="257.0" type="qcurve"/>
      <point x="529.0" y="238.0"/>
      <point x="665.0" y="232.0"/>
      <point x="823.0" y="216.0" type="qcurve"/>
      <point x="949.0" y="344.0" type="line"/>
      <point x="1084.0" y="331.0" type="line"/>
      <point x="944.0" y="-20.0" type="line"/>
      <point x="789.0" y="13.0"/>
      <point x="440.0" y="62.0"/>
      <point x="259.0" y="60.0" type="qcurve" smooth="yes"/>
      <point x="159.0" y="59.0"/>
      <point x="-30.0" y="37.0"/>
    </contour>
  </outline>
</glyph>
<glyph name="three" format="2">
  <advance width="1277"/>
  <unicode hex="0033"/>
  <outline>
    <contour>
      <point x="-84.0" y="212.0" type="qcurve" smooth="yes"/>
      <point x="-84.0" y="298.0"/>
      <point x="18.0" y="408.0"/>
      <point x="83.0" y="398.0" type="qcurve"/>
      <point x="114.0" y="398.0" type="line"/>
      <point x="111.0" y="363.0"/>
      <point x="111.0" y="331.0"/>
      <point x="112.0" y="324.0" type="qcurve" smooth="yes"/>
      <point x="122.0" y="220.0"/>
      <point x="247.0" y="105.0"/>
      <point x="383.0" y="105.0" type="qcurve" smooth="yes"/>
      <point x="595.0" y="105.0"/>
      <point x="866.0" y="305.0"/>
      <point x="866.0" y="469" type="qcurve" smooth="yes"/>
      <point x="866.0" y="603.0"/>
      <point x="603.0" y="744.0"/>
      <point x="375.0" y="749.0" type="qcurve" smooth="yes"/>
      <point x="277.0" y="752.0" type="line"/>
      <point x="308.0" y="892.0" type="line"/>
      <point x="403.0" y="899.0" type="line" smooth="yes"/>
      <point x="619.0" y="914.0"/>
      <point x="908.0" y="1065.0"/>
      <point x="908.0" y="1198.0" type="qcurve" smooth="yes"/>
      <point x="908.0" y="1301.0"/>
      <point x="765.0" y="1369.0"/>
      <point x="654.0" y="1369.0" type="qcurve" smooth="yes"/>
      <point x="533.0" y="1369.0"/>
      <point x="266.0" y="1252.0"/>
      <point x="210.0" y="1201.0" type="qcurve"/>
      <point x="115.0" y="1308.0" type="line"/>
      <point x="232.0" y="1410.0"/>
      <point x="507.0" y="1532.0"/>
      <point x="722.0" y="1532.0" type="qcurve" smooth="yes"/>
      <point x="915.0" y="1532.0"/>
      <point x="1136.0" y="1371.0"/>
      <point x="1136.0" y="1230.0" type="qcurve" smooth="yes"/>
      <point x="1136.0" y="1071.0"/>
      <point x="852.0" y="866.0"/>
      <point x="673.0" y="833.0" type="qcurve"/>
      <point x="672.0" y="826.0" type="line"/>
      <point x="848.0" y="806.0"/>
      <point x="1085.0" y="585.0"/>
      <point x="1085.0" y="432.0" type="qcurve" smooth="yes"/>
      <point x="1085.0" y="241.0"/>
      <point x="710.0" y="-30.0"/>
      <point x="403" y="-30" type="qcurve" smooth="yes"/>
      <point x="134.0" y="-30.0"/>
      <point x="-84.0" y="117.0"/>
    </contour>
  </outline>
</glyph>
<glyph name="six" format="2">
  <advance width="1397"/>
  <unicode hex="0036"/>
  <outline>
    <contour>
      <point x="-8.0" y="440.0" type="qcurve" smooth="yes"/>
      <point x="-16.0" y="825.0"/>
      <point x="700.0" y="1514.0"/>
      <point x="1210.0" y="1588.0" type="qcurve"/>
      <point x="1258.0" y="1479.0" type="line"/>
      <point x="806.0" y="1383.0"/>
      <point x="231.0" y="771.0"/>
      <point x="230.0" y="426.0" type="qcurve" smooth="yes"/>
      <point x="229.0" y="255.0"/>
      <point x="443.0" y="114.0"/>
      <point x="551.0" y="114.0" type="qcurve" smooth="yes"/>
      <point x="744.0" y="114.0"/>
      <point x="969.0" y="362.0"/>
      <point x="966.0" y="525.0" type="qcurve" smooth="yes"/>
      <point x="964.0" y="647.0"/>
      <point x="806.0" y="767.0"/>
      <point x="695.0" y="760.0" type="qcurve" smooth="yes"/>
      <point x="626.0" y="757.0"/>
      <point x="497.0" y="704.0"/>
      <point x="462.0" y="686.0" type="qcurve"/>
      <point x="425.0" y="780.0" type="line"/>
      <point x="473.0" y="821.0"/>
      <point x="634.0" y="894.0"/>
      <point x="747.0" y="900.0" type="qcurve" smooth="yes"/>
      <point x="963.0" y="912.0"/>
      <point x="1189.0" y="705.0"/>
      <point x="1191.0" y="546.0" type="qcurve" smooth="yes"/>
      <point x="1192.0" y="320.0"/>
      <point x="837.0" y="-24.0"/>
      <point x="538.0" y="-24.0" type="qcurve" smooth="yes"/>
      <point x="325.0" y="-24.0"/>
      <point x="-3.0" y="190.0"/>
    </contour>
  </outline>
</glyph>
<glyph name="colon" format="2">
  <advance width="603"/>
  <unicode hex="003A"/>
  <outline>
    <contour>
      <point x="26.0" y="135.0" type="qcurve" smooth="yes"/>
      <point x="26.0" y="197.0"/>
      <point x="113.0" y="288.0"/>
      <point x="181.0" y="288.0" type="qcurve" smooth="yes"/>
      <point x="249.0" y="288.0"/>
      <point x="336.0" y="197.0"/>
      <point x="336.0" y="135.0" type="qcurve" smooth="yes"/>
      <point x="336.0" y="75.0"/>
      <point x="249.0" y="-16.0"/>
      <point x="181.0" y="-16.0" type="qcurve" smooth="yes"/>
      <point x="113.0" y="-16.0"/>
      <point x="26.0" y="75.0"/>
    </contour>
    <contour>
      <point x="182.0" y="896.0" type="qcurve" smooth="yes"/>
      <point x="182.0" y="958.0"/>
      <point x="269.0" y="1049.0"/>
      <point x="337.0" y="1049.0" type="qcurve" smooth="yes"/>
      <point x="405.0" y="1049.0"/>
      <point x="492.0" y="958.0"/>
      <point x="492.0" y="896.0" type="qcurve" smooth="yes"/>
      <point x="492.0" y="836.0"/>
      <point x="405.0" y="745.0"/>
      <point x="337.0" y="745.0" type="qcurve" smooth="yes"/>
      <point x="269.0" y="745.0"/>
      <point x="182.0" y="836.0"/>
    </contour>
  </outline>
</glyph>
<glyph name="less" format="2">
  <advance width="908"/>
  <unicode hex="003C"/>
  <outline>
    <contour>
      <point x="11" y="595" type="qcurve"/>
      <point x="-46" y="562"/>
      <point x="674" y="1004"/>
      <point x="764" y="1063" type="qcurve" smooth="yes"/>
      <point x="838" y="1114"/>
      <point x="906" y="987"/>
      <point x="837" y="935" type="qcurve" smooth="yes"/>
      <point x="721" y="863"/>
      <point x="436" y="673"/>
      <point x="350" y="595" type="qcurve"/>
      <point x="428" y="508"/>
      <point x="662" y="302"/>
      <point x="752" y="243" type="qcurve"/>
      <point x="809" y="191"/>
      <point x="740" y="84"/>
      <point x="676" y="139" type="qcurve" smooth="yes"/>
      <point x="603" y="198"/>
      <point x="-13" y="617"/>
    </contour>
  </outline>
</glyph>
<glyph name="equal" format="2">
  <advance width="1238"/>
  <unicode hex="003D"/>
  <outline>
    <contour>
      <point x="102" y="349" type="line"/>
      <point x="102" y="496" type="line"/>
      <point x="582" y="490" type="line"/>
      <point x="1067" y="496" type="line"/>
      <point x="1067" y="349" type="line"/>
      <point x="582" y="349" type="line"/>
    </contour>
    <contour>
      <point x="102" y="746" type="line"/>
      <point x="102" y="893" type="line"/>
      <point x="582" y="893" type="line"/>
      <point x="1067" y="893" type="line"/>
      <point x="1067" y="746" type="line"/>
      <point x="582" y="752" type="line"/>
    </contour>
  </outline>
</glyph>
<glyph name="greater" format="2">
  <advance width="908"/>
  <unicode hex="003E"/>
  <outline>
    <contour>
      <point x="817" y="562" type="qcurve"/>
      <point x="855" y="588"/>
      <point x="166" y="189"/>
      <point x="59" y="121" type="qcurve" smooth="yes"/>
      <point x="-19" y="70"/>
      <point x="-79" y="201"/>
      <point x="-10" y="252" type="qcurve" smooth="yes"/>
      <point x="102" y="321"/>
      <point x="403" y="508"/>
      <point x="478" y="576" type="qcurve"/>
      <point x="392" y="673"/>
      <point x="176" y="881"/>
      <point x="82" y="943" type="qcurve"/>
      <point x="25" y="995"/>
      <point x="101" y="1098"/>
      <point x="163" y="1044" type="qcurve" smooth="yes"/>
      <point x="234" y="982"/>
      <point x="851" y="534"/>
    </contour>
  </outline>
</glyph>
<glyph name="question" format="2">
  <advance width="1314"/>
  <unicode hex="003F"/>
  <outline>
    <contour>
      <point x="153.0" y="1241.0" type="qcurve" smooth="yes"/>
      <point x="182.0" y="1373.0"/>
      <point x="511.0" y="1524.0"/>
      <point x="739.0" y="1524.0" type="qcurve" smooth="yes"/>
      <point x="989.0" y="1524.0"/>
      <point x="1249.0" y="1333.0"/>
      <point x="1249.0" y="1194.0" type="qcurve" smooth="yes"/>
      <point x="1249.0" y="1050.0"/>
      <point x="1051.0" y="842.0"/>
      <point x="826.0" y="761.0" type="qcurve" smooth="yes"/>
      <point x="664.0" y="689.0"/>
      <point x="475.0" y="596.0"/>
      <point x="446.0" y="522.0" type="qcurve" smooth="yes"/>
      <point x="428.0" y="477.0" type="line"/>
      <point x="283.0" y="477.0" type="line"/>
      <point x="286.0" y="519.0" type="line" smooth="yes"/>
      <point x="291.0" y="593.0"/>
      <point x="489.0" y="759.0"/>
      <point x="697.0" y="864.0" type="qcurve" smooth="yes"/>
      <point x="858.0" y="945.0"/>
      <point x="1003.0" y="1085.0"/>
      <point x="1003.0" y="1193.0" type="qcurve" smooth="yes"/>
      <point x="1003.0" y="1281.0"/>
      <point x="822.0" y="1375.0"/>
      <point x="698.0" y="1375.0" type="qcurve" smooth="yes"/>
      <point x="539.0" y="1375.0"/>
      <point x="358.0" y="1323.0"/>
      <point x="345.0" y="1264.0" type="qcurve" smooth="yes"/>
      <point x="338.0" y="1233.0"/>
      <point x="443.0" y="1171.0"/>
      <point x="441.0" y="1117.0" type="qcurve" smooth="yes"/>
      <point x="439.0" y="1068.0"/>
      <point x="367.0" y="1003.0"/>
      <point x="295.0" y="1003.0" type="qcurve" smooth="yes"/>
      <point x="215.0" y="1003.0"/>
      <point x="127.0" y="1117.0"/>
    </contour>
    <contour>
      <point x="155.0" y="137.0" type="qcurve" smooth="yes"/>
      <point x="155.0" y="196.0"/>
      <point x="241.0" y="287.0"/>
      <point x="309.0" y="287.0" type="qcurve" smooth="yes"/>
      <point x="377.0" y="287.0"/>
      <point x="464.0" y="196.0"/>
      <point x="464.0" y="137.0" type="qcurve" smooth="yes"/>
      <point x="464.0" y="76.0"/>
      <point x="377.0" y="-15.0"/>
      <point x="309.0" y="-15.0" type="qcurve" smooth="yes"/>
      <point x="241.0" y="-15.0"/>
      <point x="155.0" y="76.0"/>
    </contour>
  </outline>
</glyph>
<glyph name="B" format="2">
  <advance width="1838"/>
  <unicode hex="0042"/>
  <outline>
    <contour>
      <point x="-50" y="0" type="line"/>
      <point x="-17" y="146" type="line"/>
      <point x="190" y="163" type="line"/>
      <point x="317" y="797" type="line"/>
      <point x="425" y="1316" type="line"/>
      <point x="199" y="1340" type="line"/>
      <point x="223" y="1500" type="line"/>
      <point x="1287" y="1500" type="line" smooth="yes"/>
      <point x="1461" y="1500"/>
      <point x="1700" y="1308"/>
      <point x="1686" y="1163" type="qcurve" smooth="yes"/>
      <point x="1673" y="1028"/>
      <point x="1493" y="851"/>
      <point x="1377" y="830" type="qcurve"/>
      <point x="1376" y="823" type="line"/>
      <point x="1521" y="785"/>
      <point x="1682" y="574"/>
      <point x="1656" y="413" type="qcurve" smooth="yes"/>
      <point x="1626" y="226"/>
      <point x="1357" y="0"/>
      <point x="1099" y="0" type="qcurve" smooth="yes"/>
    </contour>
    <contour>
      <point x="423" y="176" type="line"/>
      <point x="456" y="147" type="line"/>
      <point x="1031" y="147" type="line" smooth="yes"/>
      <point x="1219" y="147"/>
      <point x="1412" y="293"/>
      <point x="1431" y="420" type="qcurve" smooth="yes"/>
      <point x="1450" y="546"/>
      <point x="1302" y="724"/>
      <point x="1173" y="724" type="qcurve" smooth="yes"/>
      <point x="527" y="724" type="line"/>
      <point x="515" y="710" type="line"/>
    </contour>
    <contour>
      <point x="552" y="890" type="line"/>
      <point x="557" y="867" type="line"/>
      <point x="1138" y="867" type="line" smooth="yes"/>
      <point x="1267" y="867"/>
      <point x="1429" y="1000"/>
      <point x="1443" y="1128" type="qcurve" smooth="yes"/>
      <point x="1455" y="1234"/>
      <point x="1296" y="1336"/>
      <point x="1173" y="1336" type="qcurve" smooth="yes"/>
      <point x="678" y="1336" type="line"/>
      <point x="649" y="1318" type="line"/>
    </contour>
  </outline>
</glyph>
<glyph name="C" format="2">
  <advance width="1786"/>
  <unicode hex="0043"/>
  <outline>
    <contour>
      <point x="133.0" y="862.0" type="qcurve" smooth="yes"/>
      <point x="229.0" y="1208.0"/>
      <point x="859.0" y="1579.0"/>
      <point x="1300.0" y="1530.0" type="qcurve" smooth="yes"/>
      <point x="1421.0" y="1515.0"/>
      <point x="1609.0" y="1469.0"/>
      <point x="1674.0" y="1448.0" type="qcurve"/>
      <point x="1709.0" y="1434.0" type="line"/>
      <point x="1740.0" y="1420.0" type="line"/>
      <point x="1662.0" y="992.0" type="line"/>
      <point x="1502.0" y="992.0" type="line"/>
      <point x="1514.0" y="1288.0" type="line"/>
      <point x="1491.0" y="1293.0"/>
      <point x="1325.0" y="1343.0"/>
      <point x="1237.0" y="1352.0" type="qcurve" smooth="yes"/>
      <point x="948.0" y="1380.0"/>
      <point x="451.0" y="1134.0"/>
      <point x="378.0" y="837.0" type="qcurve" smooth="yes"/>
      <point x="302.0" y="530.0"/>
      <point x="522.0" y="174.0"/>
      <point x="816.0" y="140.0" type="qcurve" smooth="yes"/>
      <point x="1065.0" y="111.0"/>
      <point x="1430.0" y="248.0"/>
      <point x="1554.0" y="361.0" type="qcurve"/>
      <point x="1586.0" y="347.0" type="line"/>
      <point x="1644.0" y="219.0" type="line"/>
      <point x="1516.0" y="91.0"/>
      <point x="1048.0" y="-60.0"/>
      <point x="792.0" y="-37.0" type="qcurve" smooth="yes"/>
      <point x="365.0" y="5.0"/>
      <point x="36.0" y="507.0"/>
    </contour>
  </outline>
</glyph>
<glyph name="D" format="2">
  <advance width="2026"/>
  <unicode hex="0044"/>
  <outline>
    <contour>
      <point x="-50.0" y="0.0" type="line"/>
      <point x="-21.0" y="148.0" type="line"/>
      <point x="196.0" y="168.0" type="line"/>
      <point x="317.0" y="755.0" type="line"/>
      <point x="427.0" y="1321.0" type="line"/>
      <point x="190.0" y="1344.0" type="line"/>
      <point x="212.0" y="1500.0" type="line"/>
      <point x="997.0" y="1500.0" type="line" smooth="yes"/>
      <point x="1453" y="1500"/>
      <point x="1872.0" y="1103.0"/>
      <point x="1838.0" y="773.0" type="qcurve" smooth="yes"/>
      <point x="1805.0" y="443.0"/>
      <point x="1285.0" y="0.0"/>
      <point x="813.0" y="0.0" type="qcurve" smooth="yes"/>
    </contour>
    <contour>
      <point x="430.0" y="175.0" type="line"/>
      <point x="460.0" y="171.0"/>
      <point x="745.0" y="162.0"/>
      <point x="832.0" y="163.0" type="qcurve" smooth="yes"/>
      <point x="1140.0" y="167.0"/>
      <point x="1572.0" y="479.0"/>
      <point x="1605.0" y="765.0" type="qcurve" smooth="yes"/>
      <point x="1639.0" y="1055.0"/>
      <point x="1285.0" y="1338.0"/>
      <point x="976.0" y="1334.0" type="qcurve" smooth="yes"/>
      <point x="878.0" y="1332.0"/>
      <point x="690.0" y="1323.0"/>
      <point x="645.0" y="1320.0" type="qcurve"/>
      <point x="537.0" y="754.0" type="line"/>
    </contour>
  </outline>
</glyph>
<glyph name="E" format="2">
  <advance width="1708"/>
  <unicode hex="0045"/>
  <outline>
    <contour>
      <point x="-50" y="0" type="line"/>
      <point x="-21" y="140" type="line"/>
      <point x="198" y="167" type="line"/>
      <point x="326" y="783" type="line"/>
      <point x="418" y="1316" type="line"/>
      <point x="188" y="1339" type="line"/>
      <point x="213" y="1500" type="line"/>
      <point x="1624" y="1500" type="line"/>
      <point x="1584" y="1112" type="line"/>
      <point x="1425" y="1112" type="line"/>
      <point x="1400" y="1342" type="line"/>
      <point x="684" y="1342" type="line"/>
      <point x="649" y="1316" type="line"/>
      <point x="548" y="794" type="line"/>
      <point x="446" y="233" type="line"/>
      <point x="507" y="153" type="line"/>
      <point x="1242" y="153" type="line"/>
      <point x="1360" y="414" type="line"/>
      <point x="1530" y="414" type="line"/>
      <point x="1431" y="0" type="line"/>
    </contour>
    <contour>
      <point x="469" y="711" type="line"/>
      <point x="488" y="852" type="line"/>
      <point x="1202" y="862" type="line"/>
      <point x="1260" y="1001" type="line"/>
      <point x="1409" y="1001" type="line"/>
      <point x="1324" y="540" type="line"/>
      <point x="1175" y="540" type="line"/>
      <point x="1177" y="701" type="line"/>
    </contour>
  </outline>
</glyph>
<glyph name="I" format="2">
  <advance width="991"/>
  <unicode hex="0049"/>
  <outline>
    <contour>
      <point x="-40.0" y="0.0" type="line"/>
      <point x="-12.0" y="138.0" type="line"/>
      <point x="205.0" y="158.0" type="line"/>
      <point x="340.0" y="806.0" type="line"/>
      <point x="435.0" y="1317.0" type="line"/>
      <point x="211.0" y="1340.0" type="line"/>
      <point x="232.0" y="1500.0" type="line"/>
      <point x="909.0" y="1500.0" type="line"/>
      <point x="878.0" y="1340.0" type="line"/>
      <point x="664.0" y="1317.0" type="line"/>
      <point x="556.0" y="790.0" type="line"/>
      <point x="434.0" y="158.0" type="line"/>
      <point x="655.0" y="138.0" type="line"/>
      <point x="637.0" y="0.0" type="line"/>
    </contour>
  </outline>
</glyph>
<glyph name="K" format="2">
  <advance width="1949"/>
  <unicode hex="004B"/>
  <outline>
    <contour>
      <point x="-50.0" y="0.0" type="line"/>
      <point x="-23.0" y="141.0" type="line"/>
      <point x="194.0" y="161.0" type="line"/>
      <point x="325.0" y="806.0" type="line"/>
      <point x="416.0" y="1317.0" type="line"/>
      <point x="192.0" y="1340.0" type="line"/>
      <point x="212.0" y="1500.0" type="line"/>
      <point x="889.0" y="1500.0" type="line"/>
      <point x="859.0" y="1340.0" type="line"/>
      <point x="645.0" y="1317.0" type="line"/>
      <point x="539.0" y="790.0" type="line"/>
      <point x="423.0" y="161.0" type="line"/>
      <point x="644.0" y="141.0" type="line"/>
      <point x="627.0" y="0.0" type="line"/>
    </contour>
    <contour>
      <point x="383.0" y="481.0" type="line"/>
      <point x="413.0" y="678.0" type="line"/>
      <point x="1387.0" y="1313.0" type="line"/>
      <point x="1254.0" y="1346.0" type="line"/>
      <point x="1273.0" y="1500.0" type="line"/>
      <point x="1884.0" y="1500.0" type="line"/>
      <point x="1865.0" y="1358.0" type="line"/>
      <point x="1687.0" y="1334.0" type="line"/>
    </contour>
    <contour>
      <point x="786.0" y="845.0" type="line"/>
      <point x="961.0" y="971.0" type="line"/>
      <point x="1588.0" y="153.0" type="line"/>
      <point x="1796.0" y="133.0" type="line"/>
      <point x="1784.0" y="0.0" type="line"/>
      <point x="1137.0" y="0.0" type="line"/>
      <point x="1149.0" y="133.0" type="line"/>
      <point x="1324.0" y="153.0" type="line"/>
    </contour>
  </outline>
</glyph>
<glyph name="M" format="2">
  <advance width="2580"/>
  <unicode hex="004D"/>
  <outline>
    <contour>
      <point x="-60" y="0" type="line"/>
      <point x="-33" y="154" type="line"/>
      <point x="184" y="174" type="line"/>
      <point x="306" y="754" type="line"/>
      <point x="415" y="1310" type="line"/>
      <point x="181" y="1334" type="line"/>
      <point x="213" y="1500" type="line"/>
      <point x="771" y="1500" type="line"/>
      <point x="973" y="786" type="line"/>
      <point x="1122" y="280" type="line"/>
      <point x="1502" y="822" type="line"/>
      <point x="1958" y="1500" type="line"/>
      <point x="2498" y="1500" type="line"/>
      <point x="2465" y="1337" type="line"/>
      <point x="2251" y="1314" type="line"/>
      <point x="2140" y="771" type="line"/>
      <point x="2033" y="174" type="line"/>
      <point x="2263" y="154" type="line"/>
      <point x="2245" y="0" type="line"/>
      <point x="1546" y="0" type="line"/>
      <point x="1574" y="154" type="line"/>
      <point x="1795" y="174" type="line"/>
      <point x="1922" y="788" type="line"/>
      <point x="2022" y="1275" type="line"/>
      <point x="1644" y="724" type="line"/>
      <point x="1149" y="-8" type="line"/>
      <point x="960" y="-8" type="line"/>
      <point x="769" y="701" type="line"/>
      <point x="599" y="1264" type="line"/>
      <point x="504" y="754" type="line"/>
      <point x="384" y="174" type="line"/>
      <point x="630" y="154" type="line"/>
      <point x="609" y="0" type="line"/>
    </contour>
  </outline>
</glyph>
<glyph name="P" format="2">
  <advance width="1737"/>
  <unicode hex="0050"/>
  <outline>
    <contour>
      <point x="-50" y="0" type="line"/>
      <point x="-15" y="148" type="line"/>
      <point x="194" y="160" type="line"/>
      <point x="319" y="784" type="line"/>
      <point x="416" y="1318" type="line"/>
      <point x="186" y="1337" type="line"/>
      <point x="206" y="1500" type="line"/>
      <point x="1146" y="1500" type="line" smooth="yes"/>
      <point x="1383" y="1500"/>
      <point x="1678" y="1218"/>
      <point x="1638" y="1006" type="qcurve" smooth="yes"/>
      <point x="1595" y="779"/>
      <point x="1200" y="537"/>
      <point x="908" y="537" type="qcurve" smooth="yes"/>
      <point x="789" y="537"/>
      <point x="448" y="552"/>
      <point x="401" y="565" type="qcurve"/>
      <point x="438" y="723" type="line"/>
      <point x="490" y="714"/>
      <point x="821" y="699"/>
      <point x="914" y="699" type="qcurve" smooth="yes"/>
      <point x="1132" y="699"/>
      <point x="1351" y="845"/>
      <point x="1381" y="1009" type="qcurve" smooth="yes"/>
      <point x="1407" y="1155"/>
      <point x="1255" y="1338"/>
      <point x="1081" y="1338" type="qcurve" smooth="yes"/>
      <point x="679" y="1338" type="line"/>
      <point x="653" y="1316" type="line"/>
      <point x="538" y="764" type="line"/>
      <point x="433" y="166" type="line"/>
      <point x="648" y="145" type="line"/>
      <point x="628" y="0" type="line"/>
    </contour>
  </outline>
</glyph>
<glyph name="R" format="2">
  <advance width="1830"/>
  <unicode hex="0052"/>
  <outline>
    <contour>
      <point x="-50" y="0" type="line"/>
      <point x="-16" y="146" type="line"/>
      <point x="194" y="161" type="line"/>
      <point x="319" y="784" type="line"/>
      <point x="407" y="1316" type="line"/>
      <point x="175" y="1340" type="line"/>
      <point x="197" y="1500" type="line"/>
      <point x="1109" y="1500" type="line" smooth="yes"/>
      <point x="1360.0" y="1500.0"/>
      <point x="1634" y="1267"/>
      <point x="1611" y="1071" type="qcurve" smooth="yes"/>
      <point x="1593" y="901"/>
      <point x="1319" y="661"/>
      <point x="1021" y="661" type="qcurve" smooth="yes"/>
      <point x="941" y="661"/>
      <point x="526" y="660"/>
      <point x="460" y="665" type="qcurve"/>
      <point x="477" y="815" type="line"/>
      <point x="612" y="815" type="line"/>
      <point x="972" y="815" type="line" smooth="yes"/>
      <point x="1179" y="815"/>
      <point x="1346" y="951"/>
      <point x="1362" y="1100" type="qcurve" smooth="yes"/>
      <point x="1374" y="1216"/>
      <point x="1221.0" y="1339.0"/>
      <point x="1060" y="1339" type="qcurve" smooth="yes"/>
      <point x="680" y="1339" type="line"/>
      <point x="643" y="1321" type="line"/>
      <point x="535" y="754" type="line"/>
      <point x="436" y="163" type="line"/>
      <point x="637" y="149" type="line"/>
      <point x="623" y="0" type="line"/>
    </contour>
    <contour>
      <point x="938" y="727" type="line"/>
      <point x="1150" y="788" type="line"/>
      <point x="1187" y="701" type="line" smooth="yes"/>
      <point x="1288" y="463"/>
      <point x="1520" y="148"/>
      <point x="1739" y="146" type="qcurve"/>
      <point x="1707" y="0" type="line"/>
      <point x="1599" y="0" type="line" smooth="yes"/>
      <point x="1335" y="0"/>
      <point x="1047" y="432"/>
      <point x="962" y="662" type="qcurve" smooth="yes"/>
    </contour>
  </outline>
</glyph>
<glyph name="T" format="2">
  <advance width="1806"/>
  <unicode hex="0054"/>
  <outline>
    <contour>
      <point x="64" y="1064" type="line"/>
      <point x="148" y="1500" type="line"/>
      <point x="1816" y="1500" type="line"/>
      <point x="1742" y="1064" type="line"/>
      <point x="1572" y="1064" type="line"/>
      <point x="1580" y="1342" type="line"/>
      <point x="1082" y="1342" type="line"/>
      <point x="1060" y="1322" type="line"/>
      <point x="952" y="754" type="line"/>
      <point x="841" y="163" type="line"/>
      <point x="1064" y="140" type="line"/>
      <point x="1044" y="0" type="line"/>
      <point x="362" y="0" type="line"/>
      <point x="393" y="140" type="line"/>
      <point x="613" y="163" type="line"/>
      <point x="726" y="754" type="line"/>
      <point x="838" y="1322" type="line"/>
      <point x="834" y="1342" type="line"/>
      <point x="326" y="1342" type="line"/>
      <point x="234" y="1064" type="line"/>
    </contour>
  </outline>
</glyph>
<glyph name="V" format="2">
  <advance width="1935"/>
  <unicode hex="0056"/>
  <outline>
    <contour>
      <point x="75.0" y="1341.0" type="line"/>
      <point x="99.0" y="1500.0" type="line"/>
      <point x="787.0" y="1500.0" type="line"/>
      <point x="763.0" y="1341.0" type="line"/>
      <point x="540.0" y="1317.0" type="line"/>
      <point x="607.0" y="801.0" type="line"/>
      <point x="691.0" y="254.0" type="line"/>
      <point x="721.0" y="254.0" type="line"/>
      <point x="1151.0" y="825.0" type="line"/>
      <point x="1522.0" y="1316.0" type="line"/>
      <point x="1297.0" y="1340.0" type="line"/>
      <point x="1326.0" y="1500.0" type="line"/>
      <point x="2018.0" y="1500.0" type="line"/>
      <point x="1979.0" y="1340.0" type="line"/>
      <point x="1746.0" y="1317.0" type="line"/>
      <point x="1309.0" y="754.0" type="line"/>
      <point x="727.0" y="-8.0" type="line"/>
      <point x="501.0" y="-8.0" type="line"/>
      <point x="401.0" y="740.0" type="line"/>
      <point x="314.0" y="1317.0" type="line"/>
    </contour>
  </outline>
</glyph>
<glyph name="X" format="2">
  <advance width="1792"/>
  <unicode hex="0058"/>
  <outline>
    <contour>
      <point x="-177" y="0" type="line"/>
      <point x="-139" y="144" type="line"/>
      <point x="68" y="164" type="line"/>
      <point x="849" y="849" type="line"/>
      <point x="863" y="849" type="line"/>
      <point x="1395" y="1321" type="line"/>
      <point x="1202" y="1349" type="line"/>
      <point x="1245" y="1500" type="line"/>
      <point x="1869" y="1500" type="line"/>
      <point x="1832" y="1349" type="line"/>
      <point x="1623" y="1326" type="line"/>
      <point x="945" y="728" type="line"/>
      <point x="932" y="728" type="line"/>
      <point x="294" y="164" type="line"/>
      <point x="521" y="144" type="line"/>
      <point x="493" y="0" type="line"/>
    </contour>
    <contour>
      <point x="221" y="1350" type="line"/>
      <point x="230" y="1500" type="line"/>
      <point x="919" y="1500" type="line"/>
      <point x="910" y="1349" type="line"/>
      <point x="675" y="1326" type="line"/>
      <point x="957" y="851" type="line"/>
      <point x="1364" y="159" type="line"/>
      <point x="1593" y="139" type="line"/>
      <point x="1595" y="0" type="line"/>
      <point x="884" y="0" type="line"/>
      <point x="881" y="139" type="line"/>
      <point x="1116" y="159" type="line"/>
      <point x="791" y="733" type="line"/>
      <point x="433" y="1326" type="line"/>
    </contour>
  </outline>
</glyph>
<glyph name="Y" format="2">
  <advance width="1859"/>
  <unicode hex="0059"/>
  <outline>
    <contour>
      <point x="115.0" y="1345.0" type="line"/>
      <point x="119.0" y="1500.0" type="line"/>
      <point x="761.0" y="1500.0" type="line"/>
      <point x="757.0" y="1345.0" type="line"/>
      <point x="551.0" y="1326.0" type="line"/>
      <point x="700.0" y="1048.0" type="line"/>
      <point x="884.0" y="767.0" type="line"/>
      <point x="1170.0" y="1074.0" type="line"/>
      <point x="1399.0" y="1317.0" type="line"/>
      <point x="1191.0" y="1340.0" type="line"/>
      <point x="1232.0" y="1500.0" type="line"/>
      <point x="1869.0" y="1500.0" type="line"/>
      <point x="1827.0" y="1340.0" type="line"/>
      <point x="1613.0" y="1316.0" type="line"/>
      <point x="1304.0" y="1011.0" type="line"/>
      <point x="925.0" y="604.0" type="line"/>
      <point x="838.0" y="159.0" type="line"/>
      <point x="1081.0" y="139.0" type="line"/>
      <point x="1055.0" y="0.0" type="line"/>
      <point x="351.0" y="0.0" type="line"/>
      <point x="380.0" y="139.0" type="line"/>
      <point x="635.0" y="159.0" type="line"/>
      <point x="732.0" y="621.0" type="line"/>
      <point x="529.0" y="966.0" type="line"/>
      <point x="299.0" y="1322.0" type="line"/>
    </contour>
  </outline>
</glyph>
<glyph name="Z" format="2">
  <advance width="1608"/>
  <unicode hex="005A"/>
  <outline>
    <contour>
      <point x="-48.0" y="0.0" type="line"/>
      <point x="-68.0" y="112.0" type="line"/>
      <point x="650.0" y="800.0" type="line"/>
      <point x="1213.0" y="1333.0" type="line"/>
      <point x="1199.0" y="1349.0" type="line"/>
      <point x="415.0" y="1349.0" type="line"/>
      <point x="323.0" y="1101.0" type="line"/>
      <point x="149.0" y="1101.0" type="line"/>
      <point x="228.0" y="1500.0" type="line"/>
      <point x="1567.0" y="1500.0" type="line"/>
      <point x="1561.0" y="1389.0" type="line"/>
      <point x="839.0" y="714.0" type="line"/>
      <point x="269.0" y="173.0" type="line"/>
      <point x="283.0" y="157.0" type="line"/>
      <point x="1173.0" y="157.0" type="line"/>
      <point x="1313.0" y="435.0" type="line"/>
      <point x="1493.0" y="435.0" type="line"/>
      <point x="1319.0" y="0.0" type="line"/>
    </contour>
  </outline>
</glyph>
<glyph name="underscore" format="2">
  <advance width="1778"/>
  <unicode hex="005F"/>
  <outline>
    <contour>
      <point x="-251" y="-480" type="line"/>
      <point x="-223" y="-327" type="line"/>
      <point x="774" y="-313" type="line"/>
      <point x="1760" y="-327" type="line"/>
      <point x="1732" y="-480" type="line"/>
      <point x="746" y="-488" type="line"/>
    </contour>
  </outline>
</glyph>
<glyph name="b" format="2">
  <advance width="1633"/>
  <unicode hex="0062"/>
  <outline>
    <contour>
      <point x="98.0" y="304.0" type="qcurve" smooth="yes"/>
      <point x="189.0" y="644.0" type="line"/>
      <point x="358.0" y="1377.0" type="line"/>
      <point x="140.0" y="1428.0" type="line"/>
      <point x="162.0" y="1524.0" type="line"/>
      <point x="508.0" y="1602.0" type="line"/>
      <point x="595.0" y="1530.0" type="line"/>
      <point x="397.0" y="631.0" type="line"/>
      <point x="309.0" y="248.0" type="line" smooth="yes"/>
      <point x="291.0" y="171.0"/>
      <point x="421.0" y="105.0"/>
      <point x="533.0" y="106.0" type="qcurve" smooth="yes"/>
      <point x="846.0" y="111.0"/>
      <point x="1185" y="494"/>
      <point x="1185.0" y="676.0" type="qcurve" smooth="yes"/>
      <point x="1185.0" y="772.0"/>
      <point x="1056.0" y="877.0"/>
      <point x="951.0" y="875.0" type="qcurve" smooth="yes"/>
      <point x="827.0" y="874.0"/>
      <point x="494.0" y="752.0"/>
      <point x="343.0" y="663.0" type="qcurve"/>
      <point x="326.0" y="779.0" type="line"/>
      <point x="534.0" y="928.0"/>
      <point x="927.0" y="1073.0"/>
      <point x="1076.0" y="1073.0" type="qcurve" smooth="yes"/>
      <point x="1220.0" y="1073.0"/>
      <point x="1425.0" y="888.0"/>
      <point x="1425.0" y="742.0" type="qcurve" smooth="yes"/>
      <point x="1425.0" y="412.0"/>
      <point x="842.0" y="-35.0"/>
      <point x="482.0" y="-35.0" type="qcurve" smooth="yes"/>
      <point x="263.0" y="-35.0"/>
      <point x="56.0" y="160.0"/>
    </contour>
  </outline>
</glyph>
<glyph name="c" format="2">
  <advance width="1450"/>
  <unicode hex="0063"/>
  <outline>
    <contour>
      <point x="-4.0" y="543.0" type="qcurve" smooth="yes"/>
      <point x="46.0" y="797.0"/>
      <point x="543.0" y="1087.0"/>
      <point x="879.0" y="1087.0" type="qcurve" smooth="yes"/>
      <point x="1064.0" y="1087.0"/>
      <point x="1297.0" y="939.0"/>
      <point x="1305.0" y="837.0" type="qcurve" smooth="yes"/>
      <point x="1311.0" y="757.0"/>
      <point x="1230.0" y="656.0"/>
      <point x="1155.0" y="636.0" type="qcurve"/>
      <point x="1081.0" y="693.0" type="line"/>
      <point x="1076.0" y="865.0" type="line" smooth="yes"/>
      <point x="1075.0" y="890.0"/>
      <point x="933.0" y="931.0"/>
      <point x="843.0" y="931.0" type="qcurve" smooth="yes"/>
      <point x="624.0" y="931.0"/>
      <point x="263.0" y="704.0"/>
      <point x="225.0" y="507.0" type="qcurve" smooth="yes"/>
      <point x="186.0" y="307.0"/>
      <point x="373.0" y="102.0"/>
      <point x="570.0" y="102.0" type="qcurve" smooth="yes"/>
      <point x="757.0" y="102.0"/>
      <point x="1061.0" y="238.0"/>
      <point x="1163.0" y="336.0" type="qcurve"/>
      <point x="1264.0" y="246.0" type="line"/>
      <point x="1267.0" y="217.0" type="line"/>
      <point x="1142.0" y="75.0"/>
      <point x="814.0" y="-41.0"/>
      <point x="558.0" y="-41.0" type="qcurve" smooth="yes"/>
      <point x="275.0" y="-41.0"/>
      <point x="-57.0" y="276.0"/>
    </contour>
  </outline>
</glyph>
<glyph name="e" format="2">
  <advance width="1461"/>
  <unicode hex="0065"/>
  <outline>
    <contour>
      <point x="-10.0" y="532.0" type="qcurve" smooth="yes"/>
      <point x="41.0" y="771.0"/>
      <point x="521.0" y="1077.0"/>
      <point x="827.0" y="1077.0" type="qcurve" smooth="yes"/>
      <point x="981.0" y="1077.0"/>
      <point x="1213.0" y="958.0"/>
      <point x="1241.0" y="876.0" type="qcurve" smooth="yes"/>
      <point x="1268.0" y="819.0"/>
      <point x="1272.0" y="681.0"/>
      <point x="1259.0" y="634.0" type="qcurve"/>
      <point x="1298.0" y="612.0" type="line"/>
      <point x="1256.0" y="492.0" type="line"/>
      <point x="1174.0" y="498.0"/>
      <point x="932.0" y="502.0"/>
      <point x="827.0" y="502.0" type="qcurve" smooth="yes"/>
      <point x="152.0" y="500.0" type="line"/>
      <point x="143.0" y="626.0" type="line"/>
      <point x="1042.0" y="638.0" type="line"/>
      <point x="1056.0" y="664.0"/>
      <point x="1061.0" y="740.0"/>
      <point x="1051.0" y="790.0" type="qcurve" smooth="yes"/>
      <point x="1043.0" y="847.0"/>
      <point x="911.0" y="936.0"/>
      <point x="779.0" y="936.0" type="qcurve" smooth="yes"/>
      <point x="595.0" y="936.0"/>
      <point x="260.0" y="693.0"/>
      <point x="219.0" y="521.0" type="qcurve" smooth="yes"/>
      <point x="178.0" y="350.0"/>
      <point x="344.0" y="112.0"/>
      <point x="542.0" y="112.0" type="qcurve" smooth="yes"/>
      <point x="738.0" y="112.0"/>
      <point x="1024.0" y="240.0"/>
      <point x="1105.0" y="305.0" type="qcurve"/>
      <point x="1186.0" y="242.0" type="line"/>
      <point x="1225.0" y="211.0" type="line"/>
      <point x="1103.0" y="90.0"/>
      <point x="749.0" y="-41.0"/>
      <point x="510.0" y="-42.0" type="qcurve" smooth="yes"/>
      <point x="200.0" y="-41.0"/>
      <point x="-65.0" y="278.0"/>
    </contour>
  </outline>
</glyph>
<glyph name="g" format="2">
  <advance width="1669"/>
  <unicode hex="0067"/>
  <outline>
    <contour>
      <point x="18.0" y="315.0" type="qcurve" smooth="yes"/>
      <point x="7.0" y="599.0"/>
      <point x="616.0" y="1046.0"/>
      <point x="949.0" y="1046.0" type="qcurve" smooth="yes"/>
      <point x="1037.0" y="1046.0"/>
      <point x="1164.0" y="1022.0"/>
      <point x="1195.0" y="1003.0" type="qcurve"/>
      <point x="1317.0" y="1102.0" type="line"/>
      <point x="1381.0" y="1102.0" type="line"/>
      <point x="1415.0" y="869.0" type="line"/>
      <point x="1298.0" y="444.0" type="line" smooth="yes"/>
      <point x="1259.0" y="281.0"/>
      <point x="1236.0" y="183.0"/>
      <point x="1173.0" y="-12.0" type="qcurve" smooth="yes"/>
      <point x="1065.0" y="-290.0"/>
      <point x="618.0" y="-464.0"/>
      <point x="351.0" y="-464.0" type="qcurve"/>
      <point x="49.0" y="-395.0" type="line"/>
      <point x="72.0" y="-280.0" type="line"/>
      <point x="333.0" y="-296.0" type="line" smooth="yes"/>
      <point x="636.0" y="-314.0"/>
      <point x="933.0" y="-159.0"/>
      <point x="990.0" y="28.0" type="qcurve" smooth="yes"/>
      <point x="1035.0" y="177.0" type="line"/>
      <point x="919.0" y="98.0"/>
      <point x="572.0" y="-15.0"/>
      <point x="401.0" y="-15.0" type="qcurve" smooth="yes"/>
      <point x="221.0" y="-15.0"/>
      <point x="23.0" y="127.0"/>
    </contour>
    <contour>
      <point x="260.0" y="330.0" type="qcurve" smooth="yes"/>
      <point x="263.0" y="225.0"/>
      <point x="389.0" y="149.0"/>
      <point x="507.0" y="149.0" type="qcurve" smooth="yes"/>
      <point x="710.0" y="149.0"/>
      <point x="1084.0" y="345.0"/>
      <point x="1128.0" y="533.0" type="qcurve" smooth="yes"/>
      <point x="1189.0" y="809.0" type="line"/>
      <point x="1183.0" y="841.0"/>
      <point x="1060.0" y="879.0"/>
      <point x="936.0" y="879.0" type="qcurve" smooth="yes"/>
      <point x="631.0" y="879.0"/>
      <point x="253.0" y="558.0"/>
    </contour>
  </outline>
</glyph>
<glyph name="i" format="2">
  <advance width="706"/>
  <unicode hex="0069"/>
  <outline>
    <contour>
      <point x="95.0" y="-21.0" type="line"/>
      <point x="38.0" y="46.0" type="line"/>
      <point x="164.0" y="527.0" type="line"/>
      <point x="230.0" y="876.0" type="line"/>
      <point x="29.0" y="866.0" type="line"/>
      <point x="55.0" y="1011.0" type="line"/>
      <point x="342.0" y="1050.0" type="line"/>
      <point x="460.0" y="1050.0" type="line"/>
      <point x="470.0" y="914.0" type="line"/>
      <point x="414.0" y="732.0" type="line"/>
      <point x="274.0" y="166.0" type="line"/>
      <point x="463.0" y="168.0" type="line"/>
      <point x="463.0" y="52.0" type="line"/>
    </contour>
    <contour>
      <point x="240.0" y="1386.0" type="qcurve" smooth="yes"/>
      <point x="246.0" y="1453.0"/>
      <point x="343.0" y="1533.0"/>
      <point x="403.0" y="1533.0" type="qcurve" smooth="yes"/>
      <point x="467.0" y="1533.0"/>
      <point x="548.0" y="1448.0"/>
      <point x="541.0" y="1386.0" type="qcurve" smooth="yes"/>
      <point x="533.0" y="1320.0"/>
      <point x="435.0" y="1237.0"/>
      <point x="375.0" y="1237.0" type="qcurve" smooth="yes"/>
      <point x="321.0" y="1237.0"/>
      <point x="233.0" y="1316.0"/>
    </contour>
  </outline>
</glyph>
<glyph name="o" format="2">
  <advance width="1658"/>
  <unicode hex="006F"/>
  <guideline x="430.0" y="0" angle="79.0" identifier="xRQiCtN0cG"/>
  <outline>
    <contour>
      <point x="-8.0" y="577.0" type="qcurve" smooth="yes"/>
      <point x="39.0" y="806.0"/>
      <point x="512.0" y="1091.0"/>
      <point x="836.0" y="1075.0" type="qcurve" smooth="yes"/>
      <point x="1160.0" y="1058.0"/>
      <point x="1509.0" y="725.0"/>
      <point x="1467.0" y="481.0" type="qcurve" smooth="yes"/>
      <point x="1428.0" y="249.0"/>
      <point x="951.0" y="-52.0"/>
      <point x="624.0" y="-36.0" type="qcurve" smooth="yes"/>
      <point x="300.0" y="-20.0"/>
      <point x="-56.0" y="327.0"/>
    </contour>
    <contour>
      <point x="239.0" y="560.0" type="qcurve" smooth="yes"/>
      <point x="209.0" y="383.0"/>
      <point x="424.0" y="126.0"/>
      <point x="651.0" y="115.0" type="qcurve" smooth="yes"/>
      <point x="896.0" y="104.0"/>
      <point x="1193.0" y="320.0"/>
      <point x="1224.0" y="506.0" type="qcurve" smooth="yes"/>
      <point x="1253.0" y="678.0"/>
      <point x="1030.0" y="911.0"/>
      <point x="803.0" y="921.0" type="qcurve" smooth="yes"/>
      <point x="556.0" y="932.0"/>
      <point x="268.0" y="739.0"/>
    </contour>
  </outline>
</glyph>
<glyph name="s" format="2">
  <advance width="1309"/>
  <unicode hex="0073"/>
  <outline>
    <contour>
      <point x="-4.0" y="211.0" type="qcurve" smooth="yes"/>
      <point x="-4.0" y="296.0"/>
      <point x="106.0" y="384.0"/>
      <point x="182.0" y="384.0" type="qcurve" smooth="yes"/>
      <point x="219.0" y="356.0" type="line"/>
      <point x="220.0" y="196.0" type="line" smooth="yes"/>
      <point x="220.0" y="151.0"/>
      <point x="372.0" y="93.0"/>
      <point x="506.0" y="93.0" type="qcurve" smooth="yes"/>
      <point x="697.0" y="93.0"/>
      <point x="897.0" y="170.0"/>
      <point x="897.0" y="241.0" type="qcurve" smooth="yes"/>
      <point x="897.0" y="301.0"/>
      <point x="743.0" y="371.0"/>
      <point x="562.0" y="435.0" type="qcurve" smooth="yes"/>
      <point x="325.0" y="521.0"/>
      <point x="152.0" y="664.0"/>
      <point x="157.0" y="790.0" type="qcurve" smooth="yes"/>
      <point x="163.0" y="932.0"/>
      <point x="442.0" y="1079.0"/>
      <point x="704.0" y="1079.0" type="qcurve" smooth="yes"/>
      <point x="910.0" y="1079.0"/>
      <point x="1151.0" y="957.0"/>
      <point x="1151.0" y="866.0" type="qcurve" smooth="yes"/>
      <point x="1151.0" y="794.0"/>
      <point x="1062.0" y="702.0"/>
      <point x="1014.0" y="691.0" type="qcurve" smooth="yes"/>
      <point x="946.0" y="731.0" type="line"/>
      <point x="946.0" y="840.0" type="line" smooth="yes"/>
      <point x="946.0" y="880.0"/>
      <point x="757.0" y="936.0"/>
      <point x="646.0" y="936.0" type="qcurve" smooth="yes"/>
      <point x="492.0" y="936.0"/>
      <point x="360.0" y="880.0"/>
      <point x="360.0" y="831.0" type="qcurve" smooth="yes"/>
      <point x="360.0" y="782.0"/>
      <point x="484.0" y="687.0"/>
      <point x="699.0" y="609.0" type="qcurve" smooth="yes"/>
      <point x="882.0" y="546.0"/>
      <point x="1102.0" y="391.0"/>
      <point x="1102.0" y="284.0" type="qcurve"/>
      <point x="1100.0" y="144.0"/>
      <point x="777.0" y="-37.0"/>
      <point x="500.0" y="-37.0" type="qcurve" smooth="yes"/>
      <point x="253.0" y="-37.0"/>
      <point x="-4.0" y="115.0"/>
    </contour>
  </outline>
</glyph>
<glyph name="w" format="2">
  <advance width="2207"/>
  <unicode hex="0077"/>
  <outline>
    <contour>
      <point x="-39.0" y="856.0" type="line"/>
      <point x="-37.0" y="997.0" type="line"/>
      <point x="239.0" y="1047.0" type="line"/>
      <point x="381.0" y="1047.0" type="line"/>
      <point x="429.0" y="608.0" type="line"/>
      <point x="473.0" y="206.0" type="line"/>
      <point x="646.0" y="361.0"/>
      <point x="857.0" y="565.0"/>
      <point x="1027.0" y="733.0" type="qcurve"/>
      <point x="1120.0" y="629.0" type="line"/>
      <point x="902.0" y="411.0"/>
      <point x="667.0" y="185.0"/>
      <point x="448.0" y="-26.0" type="qcurve"/>
      <point x="300.0" y="-26.0" type="line"/>
      <point x="217.0" y="535.0" type="line"/>
      <point x="171.0" y="859.0" type="line"/>
    </contour>
    <contour>
      <point x="856.0" y="1006.0" type="line"/>
      <point x="1041.0" y="1049.0" type="line"/>
      <point x="1128.0" y="1049.0" type="line"/>
      <point x="1194.0" y="614.0" type="line"/>
      <point x="1263.0" y="191.0" type="line"/>
      <point x="1552.0" y="432.0"/>
      <point x="1853.0" y="728.0"/>
      <point x="1858.0" y="792.0" type="qcurve" smooth="yes"/>
      <point x="1862.0" y="861.0"/>
      <point x="1797.0" y="938.0"/>
      <point x="1799.0" y="994.0" type="qcurve" smooth="yes"/>
      <point x="1801.0" y="1052.0"/>
      <point x="1881.0" y="1117.0"/>
      <point x="1954.0" y="1117.0" type="qcurve" smooth="yes"/>
      <point x="2049.0" y="1114.0"/>
      <point x="2128.0" y="1004.0"/>
      <point x="2122.0" y="915.0" type="qcurve" smooth="yes"/>
      <point x="2113.0" y="766.0"/>
      <point x="1737.0" y="370.0"/>
      <point x="1230.0" y="-26.0" type="qcurve"/>
      <point x="1090.0" y="-26.0" type="line"/>
      <point x="989.0" y="574.0" type="line"/>
      <point x="923.0" y="894.0" type="line"/>
      <point x="878.0" y="918.0" type="line"/>
    </contour>
  </outline>
</glyph>
<glyph name="x" format="2">
  <advance width="1564"/>
  <unicode hex="0078"/>
  <outline>
    <contour>
      <point x="211.0" y="874.0" type="line"/>
      <point x="186.0" y="982.0" type="line"/>
      <point x="508.0" y="1063.0" type="line"/>
      <point x="653.0" y="1044.0" type="line"/>
      <point x="839.0" y="624.0" type="line"/>
      <point x="1051.0" y="147.0" type="line"/>
      <point x="1289.0" y="164.0" type="line"/>
      <point x="1306.0" y="45.0" type="line"/>
      <point x="974.0" y="-30.0" type="line"/>
      <point x="879.0" y="16.0" type="line"/>
      <point x="687.0" y="438.0" type="line"/>
      <point x="475.0" y="896.0" type="line"/>
    </contour>
    <contour>
      <point x="-162.0" y="73.0" type="line"/>
      <point x="-116.0" y="169.0" type="line"/>
      <point x="123.0" y="169.0" type="line" smooth="yes"/>
      <point x="216.0" y="169.0"/>
      <point x="538.0" y="399.0"/>
      <point x="716.0" y="581.0" type="qcurve" smooth="yes"/>
      <point x="894.0" y="767.0"/>
      <point x="1261.0" y="1071.0"/>
      <point x="1399.0" y="1071.0" type="qcurve" smooth="yes"/>
      <point x="1485.0" y="1071.0"/>
      <point x="1578.0" y="978.0"/>
      <point x="1576.0" y="906.0" type="qcurve" smooth="yes"/>
      <point x="1573.0" y="844.0"/>
      <point x="1455.0" y="744.0"/>
      <point x="1378.0" y="742.0" type="qcurve"/>
      <point x="1359.0" y="754.0" type="line"/>
      <point x="1360.0" y="840.0" type="line"/>
      <point x="1361.0" y="848.0"/>
      <point x="1345.0" y="866.0"/>
      <point x="1325.0" y="866.0" type="qcurve" smooth="yes"/>
      <point x="1260.0" y="866.0"/>
      <point x="974.0" y="662.0"/>
      <point x="801.0" y="484.0" type="qcurve" smooth="yes"/>
      <point x="618.0" y="294.0"/>
      <point x="254.0" y="-28.0"/>
      <point x="92.0" y="-28.0" type="qcurve"/>
    </contour>
  </outline>
</glyph>
<glyph name="braceright" format="2">
  <advance width="733"/>
  <unicode hex="007D"/>
  <outline>
    <contour>
      <point x="-349.0" y="-485.0" type="qcurve"/>
      <point x="-321.0" y="-334.0" type="line"/>
      <point x="-270.0" y="-336.0"/>
      <point x="-187.0" y="-336.0"/>
      <point x="-138.0" y="-336.0" type="qcurve" smooth="yes"/>
      <point x="-78.0" y="-336.0"/>
      <point x="31.0" y="-265.0"/>
      <point x="48.0" y="-181.0" type="qcurve" smooth="yes"/>
      <point x="69.0" y="-79.0"/>
      <point x="35.0" y="239.0"/>
      <point x="53.0" y="330.0" type="qcurve" smooth="yes"/>
      <point x="72.0" y="425.0"/>
      <point x="174.0" y="516.0"/>
      <point x="250.0" y="538.0" type="qcurve"/>
      <point x="172.0" y="574.0"/>
      <point x="116.0" y="704.0"/>
      <point x="130.0" y="774.0" type="qcurve" smooth="yes"/>
      <point x="148.0" y="865.0"/>
      <point x="325.0" y="1094.0"/>
      <point x="345.0" y="1195.0" type="qcurve" smooth="yes"/>
      <point x="360.0" y="1272.0"/>
      <point x="301.0" y="1348.0"/>
      <point x="219.0" y="1348.0" type="qcurve" smooth="yes"/>
      <point x="170.0" y="1348.0"/>
      <point x="67.0" y="1348.0"/>
      <point x="14.0" y="1346.0" type="qcurve"/>
      <point x="42.0" y="1499.0" type="line"/>
      <point x="80.0" y="1502.0"/>
      <point x="203.0" y="1510.0"/>
      <point x="274.0" y="1510.0" type="qcurve" smooth="yes"/>
      <point x="430.0" y="1510.0"/>
      <point x="591.0" y="1342.0"/>
      <point x="560.0" y="1183.0" type="qcurve" smooth="yes"/>
      <point x="537.0" y="1065.0"/>
      <point x="350.0" y="842.0"/>
      <point x="327.0" y="724.0" type="qcurve"/>
      <point x="306.0" y="623.0" type="line"/>
      <point x="570.0" y="607.0" type="line"/>
      <point x="546.0" y="476.0" type="line"/>
      <point x="383.0" y="466.0" type="line" smooth="yes"/>
      <point x="326.0" y="462.0"/>
      <point x="269.0" y="428.0"/>
      <point x="258.0" y="372.0" type="qcurve" smooth="yes"/>
      <point x="235.0" y="254.0"/>
      <point x="293.0" y="-51.0"/>
      <point x="270.0" y="-169.0" type="qcurve" smooth="yes"/>
      <point x="239.0" y="-328.0"/>
      <point x="15.0" y="-495.0"/>
      <point x="-141.0" y="-495.0" type="qcurve" smooth="yes"/>
      <point x="-212.0" y="-495.0"/>
      <point x="-312.0" y="-488.0"/>
    </contour>
  </outline>
</glyph>
<glyph name="currency" format="2">
  <advance width="1429"/>
  <unicode hex="00A4"/>
  <outline>
    <contour>
      <point x="110.0" y="799.0" type="qcurve" smooth="yes"/>
      <point x="110.0" y="978.0"/>
      <point x="393.0" y="1230.0"/>
      <point x="622.0" y="1230.0" type="qcurve" smooth="yes"/>
      <point x="853.0" y="1230.0"/>
      <point x="1138.0" y="994.0"/>
      <point x="1138.0" y="803.0" type="qcurve" smooth="yes"/>
      <point x="1138.0" y="625.0"/>
      <point x="857.0" y="368.0"/>
      <point x="628.0" y="368.0" type="qcurve" smooth="yes"/>
      <point x="398.0" y="368.0"/>
      <point x="110.0" y="606.0"/>
    </contour>
    <contour>
      <point x="298.0" y="813.0" type="qcurve" smooth="yes"/>
      <point x="299.0" y="680.0"/>
      <point x="469.0" y="517.0"/>
      <point x="620.0" y="517.0" type="qcurve" smooth="yes"/>
      <point x="785.0" y="517.0"/>
      <point x="945.0" y="665.0"/>
      <point x="945.0" y="803.0" type="qcurve" smooth="yes"/>
      <point x="945.0" y="929.0"/>
      <point x="777.0" y="1076.0"/>
      <point x="622.0" y="1076.0" type="qcurve" smooth="yes"/>
      <point x="456.0" y="1076.0"/>
      <point x="297.0" y="944.0"/>
    </contour>
    <contour>
      <point x="275.0" y="1001.0" type="line"/>
      <point x="-7.0" y="1240.0" type="line"/>
      <point x="107.0" y="1372.0" type="line"/>
      <point x="387.0" y="1130.0" type="line"/>
    </contour>
    <contour>
      <point x="992.0" y="991.0" type="line"/>
      <point x="878.0" y="1119.0" type="line"/>
      <point x="1161.0" y="1360.0" type="line"/>
      <point x="1273.0" y="1232.0" type="line"/>
    </contour>
    <contour>
      <point x="285.0" y="584.0" type="line"/>
      <point x="396.0" y="455.0" type="line"/>
      <point x="106.0" y="206.0" type="line"/>
      <point x="-5.0" y="335.0" type="line"/>
    </contour>
    <contour>
      <point x="975.0" y="594.0" type="line"/>
      <point x="1255.0" y="354.0" type="line"/>
      <point x="1144.0" y="226.0" type="line"/>
      <point x="862.0" y="466.0" type="line"/>
    </contour>
  </outline>
</glyph>
<glyph name="dieresis" format="2">
  <advance width="1024"/>
  <unicode hex="00A8"/>
  <outline>
    <contour>
      <point x="723.0" y="1289.0" type="qcurve" smooth="yes"/>
      <point x="723.0" y="1355.0"/>
      <point x="795.0" y="1426.0"/>
      <point x="863.0" y="1426.0" type="qcurve" smooth="yes"/>
      <point x="926.0" y="1426.0"/>
      <point x="1003.0" y="1350.0"/>
      <point x="1003.0" y="1289.0" type="qcurve" smooth="yes"/>
      <point x="1003.0" y="1225.0"/>
      <point x="932.0" y="1154.0"/>
      <point x="863.0" y="1154.0" type="qcurve" smooth="yes"/>
      <point x="800.0" y="1154.0"/>
      <point x="723.0" y="1228.0"/>
    </contour>
    <contour>
      <point x="235.0" y="1289.0" type="qcurve" smooth="yes"/>
      <point x="235.0" y="1355.0"/>
      <point x="307.0" y="1426.0"/>
      <point x="375.0" y="1426.0" type="qcurve" smooth="yes"/>
      <point x="438.0" y="1426.0"/>
      <point x="515.0" y="1350.0"/>
      <point x="515.0" y="1289.0" type="qcurve" smooth="yes"/>
      <point x="515.0" y="1225.0"/>
      <point x="444.0" y="1154.0"/>
      <point x="375.0" y="1154.0" type="qcurve" smooth="yes"/>
      <point x="312.0" y="1154.0"/>
      <point x="235.0" y="1228.0"/>
    </contour>
  </outline>
</glyph>
<glyph name="logicalnot" format="2">
  <advance width="1238"/>
  <unicode hex="00AC"/>
  <outline>
    <contour>
      <point x="-14.0" y="709.0" type="line"/>
      <point x="999.0" y="709.0" type="line"/>
      <point x="999.0" y="200.0" type="line"/>
      <point x="823.0" y="200.0" type="line"/>
      <point x="823.0" y="555.0" type="line"/>
      <point x="-14.0" y="555.0" type="line"/>
    </contour>
  </outline>
</glyph>
<glyph name="dagger" format="2">
  <advance width="1140"/>
  <unicode hex="2020"/>
  <outline>
    <contour>
      <point x="331.0" y="-540.0" type="line"/>
      <point x="327.0" y="-58.0" type="line"/>
      <point x="458.0" y="550.0" type="line"/>
      <point x="510.0" y="830.0" type="line"/>
      <point x="586.0" y="1438.0" type="line"/>
      <point x="659.0" y="1503.0" type="line"/>
      <point x="769.0" y="1506.0" type="line"/>
      <point x="822.0" y="1438.0" type="line"/>
      <point x="670.0" y="830.0" type="line"/>
      <point x="618.0" y="550.0" type="line"/>
      <point x="533.0" y="-58.0" type="line"/>
      <point x="351.0" y="-540.0" type="line"/>
    </contour>
    <contour>
      <point x="116.0" y="852.0" type="line"/>
      <point x="119.0" y="1000.0" type="line"/>
      <point x="592.0" y="992.0" type="line"/>
      <point x="1083.0" y="1000.0" type="line"/>
      <point x="1080.0" y="852.0" type="line"/>
      <point x="589.0" y="856.0" type="line"/>
    </contour>
  </outline>
</glyph>
<glyph name="daggerdbl" format="2">
  <advance width="1151"/>
  <unicode hex="2021"/>
  <outline>
    <contour>
      <point x="321.0" y="-540.0" type="line"/>
      <point x="312.0" y="-58.0" type="line"/>
      <point x="445.0" y="550.0" type="line"/>
      <point x="495.0" y="830.0" type="line"/>
      <point x="575.0" y="1438.0" type="line"/>
      <point x="648.0" y="1503.0" type="line"/>
      <point x="741.0" y="1506.0" type="line"/>
      <point x="794.0" y="1438.0" type="line"/>
      <point x="648.0" y="830.0" type="line"/>
      <point x="599.0" y="550.0" type="line"/>
      <point x="518.0" y="-58.0" type="line"/>
      <point x="341.0" y="-540.0" type="line"/>
    </contour>
    <contour>
      <point x="96.0" y="852.0" type="line"/>
      <point x="98.0" y="1000.0" type="line"/>
      <point x="590.0" y="992.0" type="line"/>
      <point x="1102.0" y="1000.0" type="line"/>
      <point x="1100.0" y="852.0" type="line"/>
      <point x="589.0" y="856.0" type="line"/>
    </contour>
    <contour>
      <point x="16.0" y="423.0" type="line"/>
      <point x="18.0" y="571.0" type="line"/>
      <point x="511.0" y="563.0" type="line"/>
      <point x="1022.0" y="571.0" type="line"/>
      <point x="1020.0" y="423.0" type="line"/>
      <point x="509.0" y="427.0" type="line"/>
    </contour>
  </outline>
</glyph>
<glyph name="foursuperior" format="2">
  <advance width="941"/>
  <unicode hex="2074"/>
  <outline>
    <contour>
      <point x="-38.0" y="905.0" type="line"/>
      <point x="-23.0" y="1028.0" type="line"/>
      <point x="580.0" y="1540.0" type="line"/>
      <point x="719.0" y="1516.0" type="line"/>
      <point x="729.0" y="1494.0" type="line"/>
      <point x="628.0" y="965.0" type="line"/>
      <point x="587.0" y="731.0" type="line"/>
      <point x="586.0" y="647.0" type="line"/>
      <point x="429.0" y="618.0" type="line"/>
      <point x="385.0" y="671.0" type="line"/>
      <point x="453.0" y="960.0" type="line"/>
      <point x="523.0" y="1348.0" type="line"/>
      <point x="154.0" y="1044.0" type="line"/>
      <point x="154.0" y="1016.0" type="line"/>
      <point x="510.0" y="1025.0" type="line"/>
      <point x="775.0" y="1025.0" type="line"/>
      <point x="760.0" y="903.0" type="line"/>
      <point x="524.0" y="909.0" type="line"/>
    </contour>
  </outline>
</glyph>
<glyph name="acutecomb.case" format="2">
  <advance width="1024"/>
  <outline>
    <contour>
      <point x="329.0" y="1686.0" type="line"/>
      <point x="393.0" y="1597.0" type="line"/>
      <point x="786.0" y="1771.0" type="line" smooth="yes"/>
      <point x="850.0" y="1799.0"/>
      <point x="923.0" y="1872.0"/>
      <point x="923.0" y="1912.0" type="qcurve" smooth="yes"/>
      <point x="923.0" y="1952.0"/>
      <point x="877.0" y="2001.0"/>
      <point x="835.0" y="2001.0" type="qcurve" smooth="yes"/>
      <point x="787.0" y="2001.0"/>
      <point x="706.0" y="1965.0"/>
      <point x="652.0" y="1926.0" type="qcurve" smooth="yes"/>
    </contour>
  </outline>
</glyph>
<glyph name="dieresisbelowcomb" format="2">
  <advance width="1024"/>
  <outline>
    <contour>
      <point x="526.0" y="-286.0" type="qcurve" smooth="yes"/>
      <point x="526.0" y="-220.0"/>
      <point x="598.0" y="-149.0"/>
      <point x="666.0" y="-149.0" type="qcurve" smooth="yes"/>
      <point x="729.0" y="-149.0"/>
      <point x="806.0" y="-225.0"/>
      <point x="806.0" y="-286.0" type="qcurve" smooth="yes"/>
      <point x="806.0" y="-350.0"/>
      <point x="735.0" y="-421.0"/>
      <point x="666.0" y="-421.0" type="qcurve" smooth="yes"/>
      <point x="603.0" y="-421.0"/>
      <point x="526.0" y="-347.0"/>
    </contour>
    <contour>
      <point x="38.0" y="-286.0" type="qcurve" smooth="yes"/>
      <point x="38.0" y="-220.0"/>
      <point x="110.0" y="-149.0"/>
      <point x="178.0" y="-149.0" type="qcurve" smooth="yes"/>
      <point x="241.0" y="-149.0"/>
      <point x="318.0" y="-225.0"/>
      <point x="318.0" y="-286.0" type="qcurve" smooth="yes"/>
      <point x="318.0" y="-350.0"/>
      <point x="247.0" y="-421.0"/>
      <point x="178.0" y="-421.0" type="qcurve" smooth="yes"/>
      <point x="115.0" y="-421.0"/>
      <point x="38.0" y="-347.0"/>
    </contour>
  </outline>
</glyph>
<glyph name="macronbelowcomb.case" format="2">
  <advance width="1024"/>
  <outline>
    <contour>
      <point x="-63.0" y="-375.0" type="line"/>
      <point x="-31.0" y="-221.0" type="line"/>
      <point x="701.0" y="-221.0" type="line"/>
      <point x="669.0" y="-375.0" type="line"/>
    </contour>
  </outline>
</glyph>
<glyph name="nine.lf" format="2">
  <advance width="1384"/>
  <outline>
    <contour>
      <point x="-18.0" y="-49.0" type="qcurve"/>
      <point x="-66.0" y="62.0" type="line"/>
      <point x="387.0" y="138.0"/>
      <point x="973.0" y="725.0"/>
      <point x="973.0" y="1070.0" type="qcurve" smooth="yes"/>
      <point x="975.0" y="1241.0"/>
      <point x="762.0" y="1401.0"/>
      <point x="632.0" y="1401.0" type="qcurve" smooth="yes"/>
      <point x="445.0" y="1401.0"/>
      <point x="216.0" y="1179.0"/>
      <point x="227.0" y="1013.0" type="qcurve" smooth="yes"/>
      <point x="233.0" y="891.0"/>
      <point x="400.0" y="761.0"/>
      <point x="498.0" y="761.0" type="qcurve" smooth="yes"/>
      <point x="567.0" y="761.0"/>
      <point x="692.0" y="801.0"/>
      <point x="732.0" y="822.0" type="qcurve"/>
      <point x="770.0" y="720.0" type="line"/>
      <point x="722.0" y="682.0"/>
      <point x="552.0" y="624.0"/>
      <point x="445.0" y="624.0" type="qcurve" smooth="yes"/>
      <point x="229.0" y="624.0"/>
      <point x="3.0" y="842.0"/>
      <point x="1.0" y="1001.0" type="qcurve" smooth="yes"/>
      <point x="0.0" y="1227.0"/>
      <point x="350.0" y="1537.0"/>
      <point x="655.0" y="1537.0" type="qcurve" smooth="yes"/>
      <point x="878.0" y="1537.0"/>
      <point x="1200.0" y="1303.0"/>
      <point x="1202.0" y="1046.0" type="qcurve" smooth="yes"/>
      <point x="1206.0" y="631.0"/>
      <point x="503.0" y="-1.0"/>
    </contour>
  </outline>
</glyph>
<glyph name="two.lc" format="2">
  <advance width="1204"/>
  <outline>
    <contour>
      <point x="-30.0" y="4.0" type="qcurve"/>
      <point x="-95.0" y="97.0" type="line"/>
      <point x="-50.0" y="117.0"/>
      <point x="96.0" y="190.0"/>
      <point x="141.0" y="213.0" type="qcurve" smooth="yes"/>
      <point x="627.0" y="458.0"/>
      <point x="843.0" y="657.0"/>
      <point x="837.0" y="759.0" type="qcurve" smooth="yes"/>
      <point x="832.0" y="844.0"/>
      <point x="701.0" y="904.0"/>
      <point x="599.0" y="904.0" type="qcurve"/>
      <point x="473.0" y="904.0"/>
      <point x="247.0" y="834.0"/>
      <point x="162.0" y="763.0" type="qcurve"/>
      <point x="77.0" y="871.0" type="line"/>
      <point x="162.0" y="949.0"/>
      <point x="446.0" y="1062.0"/>
      <point x="624.0" y="1062.0" type="qcurve"/>
      <point x="840.0" y="1062.0"/>
      <point x="1093.0" y="915.0"/>
      <point x="1097.0" y="783.0" type="qcurve" smooth="yes"/>
      <point x="1103.0" y="618.0"/>
      <point x="722.0" y="361.0"/>
      <point x="377.0" y="224.0" type="qcurve"/>
      <point x="380.0" y="221.0" type="line"/>
      <point x="397.0" y="225.0"/>
      <point x="447.0" y="233.0"/>
      <point x="465.0" y="236.0" type="qcurve"/>
      <point x="598.0" y="224.0"/>
      <point x="713.0" y="213.0"/>
      <point x="892.0" y="192.0" type="qcurve"/>
      <point x="984.0" y="316.0" type="line"/>
      <point x="1121.0" y="297.0" type="line"/>
      <point x="1007.0" y="-30.0" type="line"/>
      <point x="811.0" y="7.0"/>
      <point x="434.0" y="64.0"/>
      <point x="271.0" y="62.0" type="qcurve" smooth="yes"/>
      <point x="185.0" y="61.0"/>
      <point x="34.0" y="29.0"/>
    </contour>
  </outline>
</glyph>
